<svg id="Layer_1" enable-background="new 0 0 150 150" viewBox="0 0 150 150" xmlns="http://www.w3.org/2000/svg"><g><path d="m21.4 76.9c.4.5 1 .8 1.6.8.4 0 .8-.1 1.2-.4l22.3-17c.7.4 1.6.7 2.5.7s1.8-.3 2.5-.7l18.6 14.2c-.1.4-.2.8-.2 1.2 0 2.8 2.3 5.1 5.1 5.1 2.7 0 5-2.2 5.1-4.9l17.3-6.6c.9 1 2.2 1.6 3.7 1.6 1.4 0 2.7-.6 3.7-1.6l21.7 8.2c.2.1.5.1.7.1.8 0 1.6-.5 1.9-1.3.4-1-.1-2.2-1.2-2.6l-21.7-8.2c-.1-2.7-2.3-4.9-5.1-4.9-2.7 0-5 2.2-5.1 4.9l-17.3 6.6c-.9-1-2.2-1.6-3.7-1.6-.9 0-1.8.3-2.5.7l-18.6-14.1c.1-.4.2-.8.2-1.2 0-2.8-2.3-5.1-5.1-5.1s-5.1 2.3-5.1 5.1c0 .4.1.8.2 1.2l-22.3 17c-.9.6-1.1 1.9-.4 2.8zm28.7-21.1c0 .6-.5 1.1-1.1 1.1s-1.1-.5-1.1-1.1.5-1.1 1.1-1.1 1.1.5 1.1 1.1zm26 19.9c0 .6-.5 1.1-1.1 1.1s-1.1-.5-1.1-1.1.5-1.1 1.1-1.1 1.1.5 1.1 1.1zm26-10c0 .6-.5 1.1-1.1 1.1s-1.1-.5-1.1-1.1.5-1.1 1.1-1.1 1.1.5 1.1 1.1z"/><path d="m126.1 32.9h-6.7c-1.1 0-2 .9-2 2s.9 2 2 2h6.7c1.1 0 2-.9 2-2s-.9-2-2-2z"/><path d="m96.7 101.9c2.9-2.2 4.7-5.7 4.7-9.6 0-6.8-5.5-12.3-12.2-12.3s-12.2 5.5-12.2 12.3c0 3.9 1.8 7.4 4.7 9.6-2.5.9-4.8 2.3-6.7 4.1-2-1.8-4.2-3.1-6.7-4.1 2.9-2.2 4.7-5.7 4.7-9.6 0-6.8-5.5-12.3-12.2-12.3s-12.2 5.5-12.2 12.3c0 3.9 1.8 7.4 4.7 9.6-8.1 3.1-13.9 10.9-13.9 20.1 0 1.1.9 2 2 2h28.4 10.3 28.4c1.1 0 2-.9 2-2 .1-9.2-5.7-17-13.8-20.1zm-14.6 18.2c-.4-4.2-2-8-4.4-11.1 3.1-2.7 7.1-4.4 11.5-4.4 8.9 0 16.3 6.8 17.3 15.5zm-10.2 0h-28.4c1-8.7 8.4-15.5 17.3-15.5s16.3 6.8 17.3 15.5zm-19.3-27.8c0-4.6 3.7-8.3 8.2-8.3s8.2 3.7 8.2 8.3-3.7 8.3-8.2 8.3c-4.5-.1-8.2-3.8-8.2-8.3zm28.4 0c0-4.6 3.7-8.3 8.2-8.3s8.2 3.7 8.2 8.3-3.7 8.3-8.2 8.3c-4.5-.1-8.2-3.8-8.2-8.3z"/><path d="m129 25.9h-108c-3.3 0-6 2.7-6 6v71.6c0 3.3 2.7 6 6 6h15.9c1.1 0 2-.9 2-2s-.9-2-2-2h-15.9c-1.1 0-2-.9-2-2v-59.5h112v59.6c0 1.1-.9 2-2 2h-15.9c-1.1 0-2 .9-2 2s.9 2 2 2h15.9c3.3 0 6-2.7 6-6v-71.7c0-3.3-2.7-6-6-6zm-110 14.1v-8c0-1.1.9-2 2-2h108c1.1 0 2 .9 2 2v8z"/></g></svg>