<svg id="Layer_1" height="512" viewBox="0 0 512 512" width="512" xmlns="http://www.w3.org/2000/svg" data-name="Layer 1"><path d="m215.452 269.131c-11.352-19.061-30.671-34.378-54.399-43.131-22.7-8.371-47.356-10.154-69.432-5.016-38.142 8.873-61.8 36.26-64.922 75.135a113.3 113.3 0 0 1 -13.087 45.45l-12.812 24.522a7 7 0 0 0 6.2 10.244h19.591l5.062 35.184a20.71 20.71 0 0 0 20.647 17.881h20.667a11.273 11.273 0 0 1 11.124 8.562l4.423 16.469a7 7 0 0 0 6.762 5.186h78.264a7 7 0 0 0 7-7v-38.01c62.771-72.037 48.895-121.996 34.912-145.476zm-47.152 138.192a7 7 0 0 0 -1.762 4.643v33.647h-65.893l-3.03-11.285a25.267 25.267 0 0 0 -24.648-18.928h-20.667a6.8 6.8 0 0 1 -6.789-5.872l-5.925-41.188a7 7 0 0 0 -6.93-6h-14.1l7.459-14.276a126.691 126.691 0 0 0 14.636-50.815c3.554-44.351 35.444-58.268 54.136-62.616 41.27-9.6 88.991 8.7 108.626 41.671 20.999 35.238 8.526 81.771-35.113 131.019zm-49.337-197.047a7 7 0 0 0 7.615-3.89c18.42-38.953 36.739-62.209 49-62.209h31.409v21.458a7 7 0 0 0 11.481 5.381l54.453-45.325a7 7 0 0 0 0-10.764l-54.455-45.3a7 7 0 0 0 -11.478 5.384v21.43h-31.408c-16.5 0-30.18 5.707-40.648 16.962-22.789 24.5-23.356 67.216-21.667 90.5a7 7 0 0 0 5.698 6.373zm26.223-87.335c7.819-8.408 17.762-12.5 30.394-12.5h38.411a7 7 0 0 0 7-7v-13.502l36.5 30.37-36.5 30.388v-13.522a7 7 0 0 0 -7-7h-38.411c-15.057 0-31.3 15.031-48.442 44.756 1.684-22.819 7.911-41.092 18.048-51.99zm235.774 182.476a7.009 7.009 0 0 0 -7.615 3.89c-18.418 38.953-36.736 62.208-49 62.208h-31.409v-21.458a7 7 0 0 0 -11.482-5.381l-54.479 45.324a7 7 0 0 0 0 10.767l54.482 45.3a7 7 0 0 0 11.479-5.384v-21.46h31.407c16.51 0 30.189-5.707 40.656-16.963 22.782-24.494 23.349-67.194 21.66-90.467a7 7 0 0 0 -5.699-6.376zm-26.214 87.306c-7.821 8.409-17.765 12.5-30.4 12.5h-38.412a7 7 0 0 0 -7 7v13.533l-36.534-30.373 36.532-30.383v13.521a7 7 0 0 0 7 7h38.409c15.06 0 31.3-15.027 48.442-44.752-1.683 22.8-7.908 41.064-18.037 51.954zm156.454-192.344-12.818-24.554a113.089 113.089 0 0 1 -13.082-45.416c-3.116-38.884-26.78-66.275-64.923-75.149-22.078-5.136-46.734-3.353-69.43 5.018-23.726 8.752-43.045 24.069-54.4 43.131-13.984 23.482-27.863 73.445 34.908 145.482v37.983a7 7 0 0 0 7 7h78.265a7 7 0 0 0 6.762-5.187l4.42-16.461a11.273 11.273 0 0 1 11.127-8.542h20.671a20.72 20.72 0 0 0 20.65-17.882l5.06-35.182h19.59a7 7 0 0 0 6.207-10.243zm-31.862-3.761a7 7 0 0 0 -6.93 6l-5.923 41.182a6.811 6.811 0 0 1 -6.79 5.877h-20.662a25.269 25.269 0 0 0 -24.649 18.906l-3.03 11.284h-65.893v-33.62a7 7 0 0 0 -1.761-4.643c-43.641-49.249-56.113-95.785-35.12-131.034 19.637-32.97 67.351-51.27 108.62-41.67 18.693 4.349 50.583 18.268 54.138 62.632a126.459 126.459 0 0 0 14.633 50.781l7.468 14.306zm-295.438 100.882-8.288-2.28q-.458-1.188-.972-2.35l4.229-7.484a7 7 0 0 0 -.333-7.42 64.384 64.384 0 0 0 -16.5-16.5 7 7 0 0 0 -7.419-.332l-7.5 4.235q-1.155-.512-2.314-.964l-2.308-8.317a7 7 0 0 0 -5.531-5.023 65.363 65.363 0 0 0 -23.238 0 7 7 0 0 0 -5.531 5.023l-2.307 8.313q-1.16.453-2.322.969l-7.524-4.24a7 7 0 0 0 -7.426.346 65.273 65.273 0 0 0 -16.473 16.472 7 7 0 0 0 -.339 7.45l4.246 7.48q-.511 1.158-.968 2.342l-8.282 2.28a7 7 0 0 0 -5.027 5.479 65.31 65.31 0 0 0 0 23.35 7 7 0 0 0 5.013 5.475l8.3 2.3q.456 1.177.971 2.343l-4.25 7.487a7 7 0 0 0 .339 7.45 65.273 65.273 0 0 0 16.473 16.472 7 7 0 0 0 7.438.339l7.506-4.249q1.149.512 2.327.971l2.31 8.3a7 7 0 0 0 5.473 5.009 65.31 65.31 0 0 0 23.35 0 7 7 0 0 0 5.473-5.009l2.311-8.306q1.176-.459 2.318-.967l7.479 4.245a7 7 0 0 0 7.431-.325 64.384 64.384 0 0 0 16.5-16.5 7 7 0 0 0 .333-7.42l-4.233-7.49q.518-1.168.975-2.352l8.3-2.3a7 7 0 0 0 5.013-5.475 65.31 65.31 0 0 0 0-23.35 7 7 0 0 0 -5.023-5.477zm-8.154 22.038-7.425 2.06a7 7 0 0 0 -4.833 4.732 39.217 39.217 0 0 1 -2.935 7.09 7 7 0 0 0 .086 6.732l3.784 6.7a50.335 50.335 0 0 1 -6.9 6.9l-6.694-3.8a7 7 0 0 0 -6.77-.078 41.019 41.019 0 0 1 -7.113 2.972 7 7 0 0 0 -4.652 4.805l-2.059 7.4a52.317 52.317 0 0 1 -9.774 0l-2.059-7.4a7 7 0 0 0 -4.67-4.811 40.139 40.139 0 0 1 -7.095-2.966 6.993 6.993 0 0 0 -6.764.074l-6.714 3.8a51.154 51.154 0 0 1 -6.9-6.9l3.793-6.682a7 7 0 0 0 .093-6.744 39.217 39.217 0 0 1 -2.935-7.09 7 7 0 0 0 -4.833-4.732l-7.425-2.06c-.153-1.606-.229-3.239-.229-4.884s.076-3.271.228-4.873l7.412-2.039a7 7 0 0 0 4.847-4.736 38.279 38.279 0 0 1 2.92-7.063 7 7 0 0 0 -.078-6.771l-3.793-6.682a51.178 51.178 0 0 1 6.907-6.908l6.72 3.786a7 7 0 0 0 6.7.095 40.152 40.152 0 0 1 7.087-2.948 7 7 0 0 0 4.732-4.833l2.056-7.414a49.9 49.9 0 0 1 9.776 0l2.056 7.414a7 7 0 0 0 4.713 4.827 40.694 40.694 0 0 1 7.106 2.954 7 7 0 0 0 6.707-.1l6.7-3.784a50.262 50.262 0 0 1 6.907 6.907l-3.784 6.7a7 7 0 0 0 -.071 6.759 38.279 38.279 0 0 1 2.92 7.063 7 7 0 0 0 4.847 4.736l7.412 2.039c.152 1.6.228 3.231.228 4.873s-.078 3.273-.23 4.879zm-50.395-33.538a28.658 28.658 0 1 0 28.658 28.658 28.691 28.691 0 0 0 -28.658-28.658zm0 43.312a14.654 14.654 0 1 1 14.654-14.654 14.67 14.67 0 0 1 -14.654 14.649zm261.156-240.864a66.544 66.544 0 1 0 66.53 66.557 66.633 66.633 0 0 0 -66.53-66.557zm0 119.083a52.54 52.54 0 1 1 52.526-52.526 52.6 52.6 0 0 1 -52.526 52.526zm8.248-67.8a7 7 0 0 0 14 0 22.287 22.287 0 0 0 -15.25-21.118v-4.365a7 7 0 0 0 -14 0v4.362a22.256 22.256 0 0 0 0 42.268v13.772a8.215 8.215 0 0 1 -1.275-4.394 7 7 0 0 0 -14 0 22.315 22.315 0 0 0 15.275 21.144v4.337a7 7 0 0 0 14 0v-4.337a22.264 22.264 0 0 0 0-42.261v-13.75a8.184 8.184 0 0 1 1.25 4.338zm-16.525 0a8.169 8.169 0 0 1 1.275-4.379v8.773a8.218 8.218 0 0 1 -1.275-4.398zm16.525 30.529a8.234 8.234 0 0 1 -1.246 4.353v-8.691a8.187 8.187 0 0 1 1.246 4.334z"/></svg>