<?xml version="1.0" encoding="UTF-8"?>
<svg xmlns="http://www.w3.org/2000/svg" id="Layer_1" data-name="Layer 1" viewBox="0 0 64 64" width="512" height="512"><path d="M53,5H17a.99943.99943,0,0,0-1,1V29a.99943.99943,0,0,0,1,1H53a.99943.99943,0,0,0,1-1V6A.99943.99943,0,0,0,53,5ZM31,17.53711c0,.24609-.0459,1.126-.09375,1.417L29.60938,21.501a.99932.99932,0,0,0,0,.9082L31,25.14062V28H21.10077l.61993-6.43066,1.35645-1.998a.99988.99988,0,0,0,.17285-.56152V14.23242l.70215.46a1.00249,1.00249,0,0,0,.54785.16309h5.25a1.00249,1.00249,0,0,0,.54785-.16309l.70215-.46ZM37,28V23.21973L38.4082,20.165a1.00275,1.00275,0,0,0,.0918-.419V16.80078a1.0001,1.0001,0,0,0-.51074-.87207l-2.01367-1.12988.51269-3.12012,2.6709-.874h6.43164l2.669.874.51464,3.12012-2.01367,1.12988a1.0001,1.0001,0,0,0-.51074.87207v2.94531a1.00275,1.00275,0,0,0,.0918.419l1.417,3.07422L47.95746,28Zm15,0H49.95911L49.749,22.958a.99336.99336,0,0,0-.09082-.377L48.25,19.52637V17.38672l2.11426-1.18652a.999.999,0,0,0,.49707-1.03418l-.66992-4.05762a1.74915,1.74915,0,0,0-1.16114-1.28223l-2.96875-.97168a.99494.99494,0,0,0-.31152-.0498H39a.99494.99494,0,0,0-.31152.0498l-2.96973.97168a1.76826,1.76826,0,0,0-1.16992,1.333L33.88867,15.166a.999.999,0,0,0,.49707,1.03418L36.5,17.38672v2.13965l-1.4082,3.05468A1.00275,1.00275,0,0,0,35,23v5H33V24.90039a.99171.99171,0,0,0-.10938-.4541l-1.26855-2.49121,1.11133-2.18262A8.1243,8.1243,0,0,0,33,17.53711V12.38184a1.0001,1.0001,0,0,0-1.54785-.83692l-2,1.31055h-4.6543l-2-1.31055a1.0001,1.0001,0,0,0-1.54785.83692v6.32031l-1.32715,1.95508a.98855.98855,0,0,0-.168.46582L19.092,28H18V7H52Z"/><path d="M2,63H6a.99237.99237,0,0,0,.98627-.932L21,63a2.00373,2.00373,0,0,0,1.999-1.92773l.99317-7.94825A1.05764,1.05764,0,0,0,24,53a2.0026,2.0026,0,0,0-2-2H17V48.56152a2.99524,2.99524,0,0,0-2.27246-2.91015l-1.24219-.31055A1.99845,1.99845,0,0,0,11,47.28125v2.48242l-.67578,1.35156-3.36682.67353A.98507.98507,0,0,0,6,51H2a.99943.99943,0,0,0-1,1V62A.99943.99943,0,0,0,2,63Zm5-9.18066,4.19629-.83887a.99793.99793,0,0,0,.69824-.5332l1-2A1.00067,1.00067,0,0,0,13,50V47.28027l1.24219.31055A.99964.99964,0,0,1,15,48.56152V52a.99943.99943,0,0,0,1,1h5.99219l-.98438,7.876c-.00488.041.0586.085.0586.126L7,60.06445ZM3,53H5v8H3Z"/><rect x="28" y="34" width="30" height="2"/><rect x="28" y="39" width="8" height="2"/><rect x="51" y="44" width="7" height="2"/><rect x="38" y="39" width="20" height="2"/><rect x="28" y="44" width="21" height="2"/><path d="M61,1H9A2.0026,2.0026,0,0,0,7,3V49H9V3H61V52H26v2H61a2.0026,2.0026,0,0,0,2-2V3A2.0026,2.0026,0,0,0,61,1Z"/><path d="M13,37.22461c0,2.9668,3.45605,5.60742,4.94238,6.60547a.99992.99992,0,0,0,1.11524,0C20.544,42.832,24,40.19141,24,37.22461a3.08581,3.08581,0,0,0-2.43164-3.1416A3.56424,3.56424,0,0,0,18.5,34.8457a3.56424,3.56424,0,0,0-3.06836-.76269A3.08581,3.08581,0,0,0,13,37.22461ZM16.19141,36a1.53678,1.53678,0,0,1,1.40429.875.9999.9999,0,0,0,1.8086,0,1.54648,1.54648,0,0,1,1.72754-.83984A1.07865,1.07865,0,0,1,22,37.22461c0,1.47851-1.77832,3.29-3.5,4.55371-1.72168-1.26367-3.5-3.0752-3.5-4.55371a1.07865,1.07865,0,0,1,.86816-1.18945A1.4638,1.4638,0,0,1,16.19141,36Z"/><circle cx="25.48999" cy="17" r="0.75"/><circle cx="29.19897" cy="17" r="0.75"/><circle cx="40" cy="14.75" r="0.75"/><circle cx="44.75" cy="14.75" r="0.75"/><path d="M42.63141,17.1416h-.42883a.76841.76841,0,0,0-.78559.74994v.00006a.76841.76841,0,0,0,.78559.75h.42883a.7684.7684,0,0,0,.78558-.75v-.00006A.7684.7684,0,0,0,42.63141,17.1416Z"/></svg>
