<svg id="Layer_1" viewBox="0 0 64 64" xmlns="http://www.w3.org/2000/svg" data-name="Layer 1"><path d="m59.33 34.63h-6.36v-17.2a3.124 3.124 0 0 0 -3.12-3.12h-14.84l-1.73-4.09a1 1 0 0 0 -.92-.61h-9.75a.993.993 0 0 0 -.92.61l-1.73 4.09h-14.84a3.124 3.124 0 0 0 -3.12 3.12v28.08a3.124 3.124 0 0 0 3.12 3.12h21.75v3.09a2.676 2.676 0 0 0 2.67 2.67h29.79a2.676 2.676 0 0 0 2.67-2.67v-14.41a2.678 2.678 0 0 0 -2.67-2.68zm-36.06-23.02h8.43l1.14 2.7h-10.71zm3.6 35.02h-15.34v-30.32h9.06a.037.037 0 0 0 .03.01h13.73a.037.037 0 0 0 .03-.01h15.47a1.125 1.125 0 0 1 1.12 1.12v17.2h-8.17a13.8 13.8 0 0 0 .37-3.16 14.04 14.04 0 1 0 -16.3 13.85zm0-3.33a12.071 12.071 0 1 1 13.87-8.67h-2.93a9.246 9.246 0 1 0 -10.94 5.82zm33.13 8.42a.67.67 0 0 1 -.67.67h-29.79a.67.67 0 0 1 -.67-.67v-14.41a.679.679 0 0 1 .67-.68h22.41c.01 0 .01.01.02.01a.035.035 0 0 1 .02-.01h7.34a.679.679 0 0 1 .67.68z"/><path d="m35.182 41.694h18.506a1 1 0 0 0 0-2h-18.506a1 1 0 0 0 0 2z"/><path d="m53.688 47.328h-18.506a1 1 0 0 0 0 2h18.506a1 1 0 0 0 0-2z"/><path d="m57.518 44.511a1 1 0 0 0 -1-1h-24.167a1 1 0 0 0 0 2h24.167a1 1 0 0 0 1-1z"/><path d="m56.82 37.95a.933.933 0 0 0 -.33.21 1.007 1.007 0 0 0 -.29.71.986.986 0 0 0 .07.38 1.06 1.06 0 0 0 .22.33.933.933 0 0 0 .33.21.838.838 0 0 0 .38.08 1.052 1.052 0 0 0 .71-.29 1.032 1.032 0 0 0 .21-.33 1 1 0 0 0 .08-.38 1.052 1.052 0 0 0 -.29-.71 1.041 1.041 0 0 0 -1.09-.21z"/><path d="m30.73 39.7a.556.556 0 0 0 .17.09.6.6 0 0 0 .19.06.615.615 0 0 0 .19.02 1.033 1.033 0 0 0 .71-.29 1.007 1.007 0 0 0 .29-.71 1.21 1.21 0 0 0 -.01-.19c-.02-.07-.04-.13-.06-.19s-.06-.12-.09-.17a.993.993 0 0 0 -1.03-.43.6.6 0 0 0 -.19.06.556.556 0 0 0 -.17.09.983.983 0 0 0 -.15.12 1.01 1.01 0 0 0 -.13.16c-.03.05-.06.11-.09.17s-.04.12-.06.19a1.225 1.225 0 0 0 -.02.19 1.017 1.017 0 0 0 .3.71.609.609 0 0 0 .15.12z"/><path d="m57.91 49.1a1.021 1.021 0 0 0 -1.09-.22.955.955 0 0 0 -.33.22 1.016 1.016 0 0 0 -.22.32 1.036 1.036 0 0 0 -.07.39.967.967 0 0 0 .29.7.834.834 0 0 0 .33.22 1 1 0 0 0 .38.08 1.007 1.007 0 0 0 1-1 1.046 1.046 0 0 0 -.08-.39.988.988 0 0 0 -.21-.32z"/><path d="m30.58 49.1a1 1 0 0 0 -.3.71.976.976 0 0 0 .3.7.639.639 0 0 0 .15.13.915.915 0 0 0 .17.09 1.056 1.056 0 0 0 .19.06 1.225 1.225 0 0 0 .19.02 1 1 0 0 0 .71-.3.967.967 0 0 0 .29-.7.99.99 0 0 0 -.29-.71 1.034 1.034 0 0 0 -1.41 0z"/><path d="m43.31 23.93h5.02a1 1 0 0 0 1-1v-4.49a1 1 0 0 0 -1-1h-5.02a1 1 0 0 0 -1 1v4.49a1 1 0 0 0 1 1zm1-4.49h3.02v2.49h-3.02z"/></svg>