<svg id="Layer_1" enable-background="new 0 0 75 75" viewBox="0 0 75 75" xmlns="http://www.w3.org/2000/svg"><g id="Election_Podcast"><g><path d="m40.7504883 21.6845703c.3813477-.1611328.5595703-.6015625.3979492-.9824219-.1611328-.3808594-.5996094-.5625-.9829102-.3984375-2.9067383 1.2304688-4.7851563 4.0644531-4.7851563 7.2197266v14.9833984c0 4.3212891 3.5161133 7.8369141 7.8378906 7.8369141s7.8374023-3.515625 7.8374023-7.8369141v-17.3144531c0-.4140625-.3359375-.75-.75-.75s-.75.3359375-.75.75v6.2558594h-12.675293v-3.9248047c.0000002-2.5517578 1.5190432-4.8427734 3.8701174-5.8388672zm2.4677734 27.1591797c-3.4946289 0-6.3378906-2.8427734-6.3378906-6.3369141v-2.9921875h12.675293v2.9921875c0 3.4941407-2.8427735 6.3369141-6.3374024 6.3369141zm6.3374024-15.8955078v5.0664063h-12.675293v-5.0664063z"/><path d="m43.2084961 54.6015625c-5.487793 0-10.0499878-4.1459351-10.6494751-9.5377197.5783691-.3009644.9785767-.899231.9785767-1.5950928v-5.3652344c0-.9941406-.8095703-1.8037109-1.8046875-1.8037109h-.7128906c-.9946289 0-1.8041992.8095703-1.8041992 1.8037109v5.3652344c0 .9951172.8095703 1.8046875 1.8041992 1.8046875h.0542603c.7037354 6.1245728 5.8944702 10.828125 12.1449585 10.828125 6.2457886 0 11.4403076-4.7035522 12.1444092-10.828125h.0767822c.9946289 0 1.8041992-.8095703 1.8041992-1.8046875v-5.3652344c0-.9941406-.8095703-1.8037109-1.8041992-1.8037109h-.7128906c-.9951172 0-1.8046875.8095703-1.8046875 1.8037109v5.3652344c0 .6872559.390564 1.2788086.9572754 1.5834961-.5944826 5.3973389-5.1638795 9.5493164-10.671631 9.5493164zm-12.4926758-11.1328125v-5.3652344c0-.1669922.1362305-.3037109.3041992-.3037109h.7128906c.1679688 0 .3046875.1367188.3046875.3037109v5.3652344c0 .1679688-.1367188.3046875-.3046875.3046875h-.7128906c-.1679687 0-.3041992-.1367187-.3041992-.3046875zm23.7070313-5.3652344c0-.1669922.1367188-.3037109.3046875-.3037109h.7128906c.1679688 0 .3041992.1367188.3041992.3037109v5.3652344c0 .1679688-.1362305.3046875-.3041992.3046875h-.7128906c-.1679688 0-.3046875-.1367188-.3046875-.3046875z"/><path d="m54.2519531 69.5v-2.3701172c0-1.8867188-1.5341797-3.4208984-3.4204102-3.4208984h-6.9091797v-5.7158203c0-.4140625-.3359375-.75-.75-.75s-.75.3359375-.75.75v5.7158203h-6.9086914c-1.8862305 0-3.4208984 1.5341797-3.4208984 3.4208984v2.3701172c0 .4140625.3359375.75.75.75h20.6591797c.4140625 0 .75-.3359375.75-.75zm-1.5-.75h-19.1591797v-1.6201172c0-1.0595703.8618164-1.9208984 1.9208984-1.9208984h15.3178711c1.059082 0 1.9204102.8613281 1.9204102 1.9208984z"/><path d="m62.1152344 4.75h-18.1450196c-1.0942383 0-1.9848633.890625-1.9848633 1.984375v10.9892578c0 1.0947266.890625 1.9853516 1.9848633 1.9853516h1.5410156l-.4389648 4.1552734c-.1014404.8115215.8308754 1.3928986 1.5522461.7988281l5.2446289-4.9541016h10.2460938c1.0942383 0 1.9848633-.890625 1.9848633-1.9853516l.0004882-10.9892577c0-1.09375-.890625-1.984375-1.9853515-1.984375zm.4848633 12.9736328c0 .2675781-.2172852.4853516-.4848633.4853516h-10.5444336c-.1914063 0-.3759766.0732422-.5151367.2050781l-4.3320313 4.0947266.3666992-3.4707031c.0470924-.4443092-.3007813-.8291016-.7456055-.8291016h-2.3745117c-.2675781 0-.4848633-.2177734-.4848633-.4853516v-10.9892578c0-.2666016.2172852-.484375.4848633-.484375h18.1450195c.2675781 0 .4853516.2177734.4853516.484375z"/><path d="m55.6982422 9.6533203c-.046875-1.2285156-1.0888672-2.2246094-2.3125-2.1416016-1.9693146.0743747-2.8836708 2.5119562-1.4291992 3.8623047 1.4478607 1.3406754 3.81744.2643204 3.7416992-1.7207031zm-2.2548828-.6435547h.0283203c.3886719 0 .7124023.3085938.7275391.7001953.015625.4023438-.2988281.7421875-.7001953.7578125-.4305229.0022602-.7413101-.3151445-.7558594-.7011719-.0153084-.4062261.3004112-.7407646.7001953-.7568359z"/><path d="m49.2685547 15.6474609c-.1725349.4885082.1909599 1 .7070313 1h6.9912109c.5159035 0 .8796196-.5113468.7070313-1-1.4094697-3.9829206-7.0155869-3.9324417-8.4052735 0zm2.0092773-.5c1.1544609-1.298768 3.2422409-1.3046837 4.4008789 0z"/><path d="m28.4169922 34.0263672c.646534.5261192 1.6142082-.0115776 1.512207-.8232422l-.4404297-4.1679688h1.5410156c1.0942383 0 1.9848633-.890625 1.9848633-1.9853516v-10.9892577c0-1.0947266-.890625-1.9853516-1.9848633-1.9853516h-18.1450195c-1.0947266 0-1.9853516.890625-1.9853516 1.9853516l.0004883 10.9892578c0 1.0947266.890625 1.9853516 1.9848633 1.9853516h10.2460938zm-16.0170899-6.9765625-.0004883-10.9892578c0-.2675781.2177734-.4853516.4853516-.4853516h18.1450195c.2675781 0 .4848633.2177734.4848633.4853516v10.9892578c0 .2675781-.2172852.4853516-.4848633.4853516h-2.3745117c-.4450493 0-.7926712.385046-.7456055.8291016l.3666992 3.4677734-4.3320313-4.0917969c-.1391602-.1318359-.3237305-.2050781-.5151367-.2050781h-10.5444335c-.2675781 0-.4848633-.2177735-.4848633-.4853516z"/><path d="m15.6425781 19.9697266h7.1147461c.4140625 0 .75-.3359375.75-.75s-.3359375-.75-.75-.75h-7.1147461c-.4140625 0-.75.3359375-.75.75s.3359375.75.75.75z"/><path d="m29.2319336 23.8330078c0-.4140625-.3359375-.75-.75-.75h-12.8393555c-.4140625 0-.75.3359375-.75.75s.3359375.75.75.75h12.8393555c.4140625 0 .75-.3359375.75-.75z"/></g></g></svg>