<svg id="Layer_1" viewBox="0 0 64 64" xmlns="http://www.w3.org/2000/svg" data-name="Layer 1"><path d="m61 34.215h-2.37v-.005a17.733 17.733 0 0 0 -16.688-16.68v-2.374a1 1 0 1 0 -2 0v2.374a15.664 15.664 0 0 0 -2.758.39l-11.543-9.949a1 1 0 0 0 -1.307 0l-6.149 5.3v-1.239a1 1 0 0 0 -1-1h-6.658a1 1 0 0 0 -1 1v8.694l-7.18 6.186a1 1 0 0 0 -.1 1.41l3.645 4.225a1 1 0 0 0 1.41.1l.718-.619v18.45a1 1 0 0 0 1 1h24.934.006a17.1 17.1 0 0 0 5.98 1.41v2.38a1 1 0 1 0 2 0v-2.378a17.725 17.725 0 0 0 16.69-16.675h2.37a1 1 0 0 0 0-2zm-4.37-.005v.005h-2.61v-.005a13.122 13.122 0 0 0 -12.078-12.07v-2.61a15.74 15.74 0 0 1 14.688 14.68zm-18.143-9.817c.043-.009.086-.015.13-.024a10.691 10.691 0 0 0 -1.157.3 10.032 10.032 0 0 1 1.027-.276zm1.3-.206.106-.011c-.288.028-.575.065-.859.114l.155-.029c.199-.03.399-.056.599-.074zm.152 3.293a1 1 0 0 1 1-1 8.706 8.706 0 0 1 8.04 5.33.991.991 0 0 1 -.53 1.31.881.881 0 0 1 -.39.08 1 1 0 0 1 -.92-.61 6.709 6.709 0 0 0 -6.2-4.11 1 1 0 0 1 -.999-1zm1.34-3.37c-.335-.009-.678.009-1.015.027.336-.022.677-.032 1.016-.027zm-1.338-4.58v2.63a10.916 10.916 0 0 0 -1.28.16 12.655 12.655 0 0 0 -4.2 1.5 13.108 13.108 0 0 0 -6.6 10.39h-2.6a15.8 15.8 0 0 1 6.639-11.84.01.01 0 0 0 .01-.01 15.329 15.329 0 0 1 5.2-2.38.06.06 0 0 1 .04-.01 15.033 15.033 0 0 1 2.79-.44zm-28.415-6.5h4.658v1.96l-4.657 4.01zm-4.777 17.453-2.338-2.71 20.575-17.725 9.886 8.521a17.292 17.292 0 0 0 -3.472 1.731l-5.754-4.97a1 1 0 0 0 -1.307 0zm3.267-.174 14.97-12.9 4.75 4.1a17.7 17.7 0 0 0 -6.476 12.7h-2.38a1 1 0 0 0 0 2h2.38a17.7 17.7 0 0 0 7.2 13.268h-20.444zm24.544 19.251a15.721 15.721 0 0 1 -9.3-13.35h2.6a13.157 13.157 0 0 0 12.08 12.09v2.59a15.587 15.587 0 0 1 -5.38-1.33zm7.38 1.33v-2.59a13.131 13.131 0 0 0 12.079-12.085h2.61a15.747 15.747 0 0 1 -14.689 14.675z"/></svg>