<?xml version="1.0"?>
<svg xmlns="http://www.w3.org/2000/svg" id="Layer_1" data-name="Layer 1" viewBox="0 0 100 100"><path d="M95.71,64.64a3.27,3.27,0,0,1-3.26,3.26H13.27v1.77H27.68A4.83,4.83,0,0,0,32.5,74.3h5.82L25.91,99.06l1.58.78L40.25,74.41,40,74.3H60.83l-.2.11L73.38,99.84,75,99.06,62.56,74.3h5.8a4.83,4.83,0,0,0,4.82-4.63H92.45a5,5,0,0,0,5-5V20.27H95.71ZM68.36,72.53H32.5a3.05,3.05,0,0,1-3.05-2.86h42A3.05,3.05,0,0,1,68.36,72.53ZM92.45,5.12H60.24V2.46A2.29,2.29,0,0,0,58,.19H42.89a2.29,2.29,0,0,0-2.27,2.27V5.12H8.41a5.05,5.05,0,0,0-5,5V64.64a5.05,5.05,0,0,0,5,5h2.52V67.9H8.41a3.27,3.27,0,0,1-3.26-3.26V10.15A3.27,3.27,0,0,1,8.41,6.89h84a3.27,3.27,0,0,1,3.26,3.26v7.77h1.77V10.15A5,5,0,0,0,92.45,5.12Zm-34,0H42.39V2.46a.51.51,0,0,1,.5-.5H58a.51.51,0,0,1,.5.5Z"/><path d="M92.45,8.49h-84a1.67,1.67,0,0,0-1.66,1.68V64.64a1.66,1.66,0,0,0,1.66,1.67h84a1.66,1.66,0,0,0,1.66-1.67V10.17A1.67,1.67,0,0,0,92.45,8.49Zm-83.93,56L8.41,10.26l83.93-.09.11,54.36Z"/><path d="M64.64,37A14.26,14.26,0,0,0,51.33,23.64V18.15H49.55v5.49A14.26,14.26,0,0,0,36.22,37H30.73v1.77h5.49A14.26,14.26,0,0,0,49.55,52.07v5.48h1.78V52.07A14.26,14.26,0,0,0,64.64,38.74h5.49V37ZM62.9,38A12.51,12.51,0,0,1,50.6,50.34h-.34A12.51,12.51,0,0,1,38,38v-.28A12.48,12.48,0,0,1,50.3,25.38h.26A12.48,12.48,0,0,1,62.9,37.72Z"/><path d="M50.44,27.31A10.55,10.55,0,1,0,61,37.86,10.56,10.56,0,0,0,50.44,27.31Zm0,19.32a8.78,8.78,0,1,1,8.76-8.77A8.77,8.77,0,0,1,50.44,46.63Z"/></svg>
