<svg id="Layer_1" enable-background="new 0 0 512 512" viewBox="0 0 512 512" xmlns="http://www.w3.org/2000/svg"><path clip-rule="evenodd" d="m255.98 189.34c15.61 0 28.36 12.71 28.36 28.33s-12.74 28.32-28.36 28.32c-15.61 0-28.31-12.71-28.31-28.32 0-15.62 12.69-28.33 28.31-28.33zm0 66.66c21.16 0 38.33-19.08 38.33-40.22 0-21.13-17.17-36.44-38.33-36.44-21.12 0-38.33 17.2-38.33 38.33 0 21.14 17.21 38.33 38.33 38.33zm-85.69-36.95c21.12 0 38.33-17.2 38.33-38.33 0-21.14-17.21-38.33-38.33-38.33s-38.33 17.19-38.33 38.33c0 21.13 17.22 38.33 38.33 38.33zm145.84 125.2c-18.53 12.66-46.13 17.26-60.15 17.26-14.01 0-41.57-4.6-60.15-17.26-4.19-2.88-6.21-7.44-5.46-12.5 4.75-32.34 32.97-57.11 65.6-57.64 32.68.53 60.9 25.3 65.6 57.64.76 5.06-1.21 9.62-5.44 12.5zm75.66-97.64c-13.87-12.27-31.65-19.18-50.04-19.46-.05 0-.09 0-.14 0-27.79.42-52.86 15.53-66.4 39.71-6.21-1.71-12.65-2.65-19.14-2.75-.05 0-.09 0-.14 0-6.54.1-12.98 1.04-19.19 2.75-13.54-24.18-38.56-39.29-66.36-39.71-.05 0-.14 0-.19 0-18.39.28-36.16 7.19-50.04 19.46-13.73 12.16-22.76 28.76-25.4 46.74-1.27 8.85 2.35 17.15 9.73 22.2 19.14 13.06 47.5 19 65.79 19 3.06 0 6.4-.18 9.92-.52.09 7.41 3.67 14.14 9.97 18.48 19.14 13.05 47.54 19 65.79 19 18.29 0 46.65-5.95 65.79-19 6.35-4.34 9.92-11.07 9.97-18.48 3.53.34 6.91.52 9.97.52 18.25 0 46.65-5.94 65.75-19 7.38-5.05 11.05-13.35 9.73-22.2-2.61-17.98-11.63-34.58-25.37-46.74zm-50.08-27.56c21.12 0 38.33-17.2 38.33-38.33 0-21.14-17.21-38.33-38.33-38.33-21.16 0-38.37 17.19-38.37 38.33-.01 21.13 17.21 38.33 38.37 38.33zm-80.7 232.96c104.12-2.62 188.35-86.86 190.98-191.01h-14.95c-2.73 0-4.98-2.24-4.98-5s2.26-5 4.98-5h14.95c-2.63-104.15-86.86-188.38-190.98-191v14.93c0 2.76-2.26 5-5.03 5-2.73 0-4.99-2.24-4.99-5v-14.93c-104.17 2.62-188.39 86.85-191.03 191h14.95c2.77 0 4.99 2.24 4.99 5s-2.21 5-4.99 5h-14.95c2.63 104.15 86.86 188.39 191.03 191.01v-14.94c0-2.76 2.26-5 4.99-5 2.77 0 5.03 2.24 5.03 5zm235-201.01h-34c-2.63-109.66-91.38-198.38-201-201v-34c0-2.76-2.26-5-5.03-5-2.73 0-4.99 2.24-4.99 5v34c-109.67 2.62-198.36 91.34-201 201h-34c-2.77 0-4.99 2.24-4.99 5s2.21 5 4.99 5h34c2.63 109.67 91.33 198.38 201 201.01v33.99c0 2.76 2.26 5 4.99 5 2.77 0 5.03-2.24 5.03-5v-33.99c109.62-2.63 198.36-91.34 201-201.01h34c2.73 0 4.99-2.24 4.99-5-.01-2.76-2.27-5-4.99-5z" fill-rule="evenodd"/></svg>