<svg id="Layer_1" viewBox="0 0 64 64" xmlns="http://www.w3.org/2000/svg" data-name="Layer 1"><path d="m47.026 57.929a1 1 0 0 0 1.948 0c1.188-5.053 1.9-5.767 6.955-6.955a1 1 0 0 0 0-1.948c-5.053-1.188-5.767-1.9-6.955-6.955a1 1 0 0 0 -1.948 0c-1.188 5.053-1.9 5.767-6.955 6.955a1 1 0 0 0 0 1.948c5.053 1.188 5.767 1.902 6.955 6.955zm.974-12.108a6.65 6.65 0 0 0 4.179 4.179 6.65 6.65 0 0 0 -4.179 4.179 6.65 6.65 0 0 0 -4.179-4.179 6.65 6.65 0 0 0 4.179-4.179z"/><path d="m4 52.1v3.029a5.1 5.1 0 0 0 3.228 4.671l3.952 1.639a7.32 7.32 0 0 0 5.64 0l3.952-1.639a5.1 5.1 0 0 0 3.228-4.674v-3.026a2.884 2.884 0 0 0 2-2.7 2.585 2.585 0 0 0 -.024-.278.913.913 0 0 0 .024-.122v-3.781a9.23 9.23 0 0 0 -9.22-9.219h-5.56a9.23 9.23 0 0 0 -9.22 9.219v3.781a.848.848 0 0 0 .025.111 2.67 2.67 0 0 0 -.025.283 2.884 2.884 0 0 0 2 2.706zm0-6.878a7.227 7.227 0 0 1 7.22-7.222h5.56a7.227 7.227 0 0 1 7.22 7.219v1.481c-.034-.012-.065-.029-.1-.039a3.806 3.806 0 0 0 -3.7-2.93h-.979l-7.8-3.638a1 1 0 0 0 -1.389 1.165l.663 2.473h-2.895a3.806 3.806 0 0 0 -3.7 2.93c-.035.01-.066.027-.1.039zm1 3.31a1 1 0 0 0 1-1 1.8 1.8 0 0 1 1.8-1.8h4.2a1 1 0 0 0 .966-1.258l-.445-1.66 6.056 2.825a1.011 1.011 0 0 0 .423.091h1.2a1.8 1.8 0 0 1 1.8 1.8 1 1 0 0 0 1 1 .875.875 0 1 1 0 1.732 1 1 0 0 0 -1 1v3.866a3.105 3.105 0 0 1 -1.993 2.823l-3.953 1.638a5.329 5.329 0 0 1 -4.108 0l-3.953-1.64a3.105 3.105 0 0 1 -1.993-2.823v-3.866a1 1 0 0 0 -1-1 .875.875 0 1 1 0-1.732z"/><path d="m10 50a1 1 0 0 1 1 1h2a3 3 0 0 0 -6 0h2a1 1 0 0 1 1-1z"/><path d="m18 50a1 1 0 0 1 1 1h2a3 3 0 0 0 -6 0h2a1 1 0 0 1 1-1z"/><path d="m12 55h-2c0 1.682 1.757 3 4 3s4-1.318 4-3h-2c0 .408-.779 1-2 1s-2-.592-2-1z"/><path d="m61 2h-54a1 1 0 0 0 -1 1v30a1 1 0 0 0 1 1h27.586l-6.293 6.293a1 1 0 0 0 1.133 1.612l16.798-7.905h14.776a1 1 0 0 0 1-1v-30a1 1 0 0 0 -1-1zm-1 30h-14a1.014 1.014 0 0 0 -.426.095l-11.815 5.56 3.948-3.948a1 1 0 0 0 -.707-1.707h-29v-28h52z"/><path d="m12.432 13.719-.509 3.12a1 1 0 0 0 1.471 1.036l2.606-1.44 2.606 1.44a1 1 0 0 0 1.471-1.036l-.509-3.12 2.148-2.2a1 1 0 0 0 -.565-1.687l-2.927-.447-1.319-2.81a1 1 0 0 0 -1.81 0l-1.319 2.809-2.927.447a1 1 0 0 0 -.565 1.687zm2.174-2.438a1 1 0 0 0 .754-.564l.64-1.363.64 1.363a1 1 0 0 0 .754.564l1.531.234-1.141 1.169a1 1 0 0 0 -.271.859l.259 1.586-1.288-.712a1 1 0 0 0 -.968 0l-1.288.712.259-1.586a1 1 0 0 0 -.271-.859l-1.141-1.169z"/><path d="m36 7h22v2h-22z"/><path d="m26 13h32v2h-32z"/><path d="m26 19h32v2h-32z"/><path d="m11 26h47v2h-47z"/></svg>