<svg id="Layer_1" enable-background="new 0 0 160 160" viewBox="0 0 160 160" xmlns="http://www.w3.org/2000/svg"><g><g><path d="m147 15.4h-134c-4.4 0-8 3.6-8 8v101.3c0 4.4 3.6 8 8 8h5.4c-.9-1.3-1.6-2.6-2.3-4h-3.1c-2.2 0-4-1.8-4-4v-18.7h5.3c.4-1.4.9-2.7 1.5-4h-6.8v-78.6c0-2.2 1.8-4 4-4h134c2.2 0 4 1.8 4 4v78.6h-77.6c.6 1.3 1.1 2.6 1.5 4h76.1v18.6c0 2.2-1.8 4-4 4h-73.9c-.7 1.4-1.4 2.7-2.3 4h76.2c4.4 0 8-3.6 8-8v-101.2c0-4.4-3.6-8-8-8z"/><path d="m97.6 94c0 1.1.9 2 2 2s2-.9 2-2c0-10.7 8.8-19.4 19.7-19.4s19.7 8.7 19.7 19.4c0 1.1.9 2 2 2s2-.9 2-2c0-10.1-6.5-18.7-15.6-22 3.6-2.5 5.9-6.6 5.9-11.3 0-7.7-6.3-13.9-14-13.9s-14 6.2-14 13.9c0 4.7 2.3 8.8 5.9 11.3-9.1 3.3-15.6 11.9-15.6 22zm13.7-33.3c0-5.4 4.5-9.9 10-9.9s10 4.4 10 9.9-4.5 9.9-10 9.9-10-4.4-10-9.9z"/><path d="m69.7 74.4c6 0 10.9-4.9 10.9-10.9v-.3h20.6c.9 0 1.8-.7 2-1.6s-.3-1.9-1.1-2.2l-21.5-9.9v-13.2c0-6-4.9-10.9-10.9-10.9h-42.2c-6 0-10.9 4.9-10.9 10.9v27.2c0 6 4.9 10.9 10.9 10.9zm-49.1-10.9v-27.2c0-3.8 3.1-6.9 6.9-6.9h42.2c3.8 0 6.9 3.1 6.9 6.9v14.4c0 .8.5 1.5 1.2 1.8l14.4 6.6h-13.6c-1.1 0-2 .9-2 2v2.3c0 3.8-3.1 6.9-6.9 6.9h-42.2c-3.8.1-6.9-3-6.9-6.8z"/><path d="m68.6 63.2c1.1 0 2-.9 2-2s-.9-2-2-2h-40c-1.1 0-2 .9-2 2s.9 2 2 2z"/><path d="m28.6 51.9h40.1c1.1 0 2-.9 2-2s-.9-2-2-2h-40.1c-1.1 0-2 .9-2 2s.8 2 2 2z"/><path d="m28.6 40.6h40.1c1.1 0 2-.9 2-2s-.9-2-2-2h-40.1c-1.1 0-2 .9-2 2s.8 2 2 2z"/><path d="m87.3 125c3.9 0 7.1-3.2 7.1-7.1s-3.2-7.1-7.1-7.1-7.1 3.2-7.1 7.1 3.2 7.1 7.1 7.1zm0-10.3c1.7 0 3.1 1.4 3.1 3.1s-1.4 3.1-3.1 3.1-3.1-1.4-3.1-3.1 1.4-3.1 3.1-3.1z"/><path d="m107.6 125c3.9 0 7.1-3.2 7.1-7.1s-3.2-7.1-7.1-7.1-7.1 3.2-7.1 7.1 3.2 7.1 7.1 7.1zm0-10.3c1.7 0 3.1 1.4 3.1 3.1s-1.4 3.1-3.1 3.1-3.1-1.4-3.1-3.1 1.4-3.1 3.1-3.1z"/><path d="m127.9 125c3.9 0 7.1-3.2 7.1-7.1s-3.2-7.1-7.1-7.1-7.1 3.2-7.1 7.1 3.1 7.1 7.1 7.1zm0-10.3c1.7 0 3.1 1.4 3.1 3.1s-1.4 3.1-3.1 3.1-3.1-1.4-3.1-3.1c-.1-1.7 1.3-3.1 3.1-3.1z"/><path d="m44.6 85.4c-16.3 0-29.6 13.3-29.6 29.6s13.3 29.6 29.6 29.6 29.6-13.3 29.6-29.6-13.3-29.6-29.6-29.6zm-25.6 29.6c0-14.1 11.5-25.6 25.6-25.6s25.6 11.5 25.6 25.6-11.5 25.6-25.6 25.6-25.6-11.5-25.6-25.6z"/><path d="m59.3 106.6c-.7-.4-1.5-.6-2.2-.6h-7.6c.3-2.1.5-4.3.4-6.5v-.2c-.1-1.5-.7-2.8-1.7-3.9-1.1-1.1-2.6-1.6-4-1.2-.5.1-.9.3-1.3.5l-.9.5c-.6.4-1 1-1 1.7v2.6c0 1.2-.2 2.3-.7 3.4-.4 1.1-1.1 2-1.9 2.9l-1 1c-.3-.2-.7-.4-1.2-.4h-6.8c-1.1 0-2 .9-2 2v18.7c0 1.1.9 2 2 2h6.8c1 0 1.8-.7 2-1.6.9.2 1.8.3 2.7.3h13.8c2.4 0 4.3-1.9 4.5-4.2 1.8-7.8 2.7-12.1 2.7-12.8-.1-1.7-1.1-3.3-2.6-4.2zm-4.2 16.8c0 .3-.2.5-.5.5h-13.7c-.9 0-1.8-.1-2.7-.4v-11.7l3.1-3.1c1.2-1.2 2.1-2.6 2.8-4.2.6-1.6 1-3.2 1-4.9v-1.5s.2 0 .3.1c.3.3.5.8.6 1.3v.2c.1 2.2-.1 4.3-.5 6.5l-.3 1.5c-.1.6 0 1.2.4 1.6s.9.7 1.5.7h10c.1 0 .2 0 .3.1.3.1.4.4.4.6-.1.8-1.4 6.8-2.6 12.2 0 .2-.1.3-.1.5zm-23.7-12.9h2.8v.4 13.9.3h-2.8z"/></g></g></svg>