<svg id="Layer_1" enable-background="new 0 0 500 500" viewBox="0 0 500 500" xmlns="http://www.w3.org/2000/svg"><path clip-rule="evenodd" d="m189.93 230.559v-63.378l54.878 31.695zm71.543-37.45-74.854-43.207c-4.397-2.529-9.988.569-9.988 5.756v86.424c0 5.202 5.559 8.279 9.988 5.767l74.854-43.218c4.379-2.551 4.421-8.922 0-11.522zm95.896 138.838 6.172 18.946-16.104-11.709c-2.75-1.969-6.397-1.977-9.09 0l-16.104 11.709 6.116-18.938c1.066-3.193-.056-6.67-2.806-8.655l-16.104-11.709h19.92c3.367 0 6.341-2.148 7.351-5.341l6.172-18.947 6.172 18.947c1.01 3.193 3.984 5.341 7.351 5.341h19.92l-16.16 11.718c-2.694 1.968-3.816 5.444-2.806 8.638zm13.915-.256 26.709-19.409c6.057-4.369 2.913-13.997-4.545-13.997h-32.994l-10.212-31.401c-2.341-7.115-12.427-7.103-14.702 0l-10.212 31.401h-32.994c-7.527 0-10.602 9.609-4.601 13.988l26.766 19.418-10.213 31.401c-2.323 7.048 5.85 13.019 11.896 8.649l26.709-19.409 26.709 19.409c2.696 1.973 6.407 1.967 9.09 0 2.693-1.98 3.872-5.456 2.806-8.649zm27.72 95.009c-4.938-1.322-10.044 1.607-11.335 6.538l-3.759 14.068-22.052-38.17c11.279-2.536 21.772-7.255 30.974-13.686l20.201 35.011zm-56.393-28.74c41.13 0 74.573-33.441 74.573-74.546s-33.443-74.546-74.573-74.546-74.573 33.442-74.573 74.546c0 41.105 33.443 74.546 74.573 74.546zm-41.298 49.346-3.759-14.068c-1.284-4.885-6.365-7.868-11.335-6.538l-14.084 3.761 20.256-35.011c9.203 6.431 19.695 11.15 30.974 13.686zm3.422-309.928c0-5.083-4.152-9.217-9.259-9.217h-157.506c-5.106 0-9.258 4.134-9.258 9.217v122.995c0 5.074 4.152 9.215 9.258 9.215h135.23c8.361-10.731 19.134-19.488 31.535-25.43zm-41.018 224.605c-12.301-25.033-11.953-54.407.954-79.087h-126.701c-12.457 0-22.557-10.105-22.557-22.522v-122.996c0-12.419 10.1-22.524 22.557-22.524h157.507c12.457 0 22.557 10.105 22.557 22.524v101.688c11.129-3.252 22.795-4.252 34.509-2.944v-125.196c-46.39-11.967-91.252-41.717-135.848-66.225-44.294 24.486-89.887 54.406-135.792 66.225v123.998c0 67.92 37.427 92.811 89.162 127.254 15.094 10.067 30.693 20.437 46.629 32.801 15.992-12.356 31.591-22.734 46.686-32.793zm167.664 73.562-28.113-48.645c16.778-16.003 27.215-38.551 27.215-63.485 0-40.423-27.439-74.546-64.698-84.747.056-1.243.056-2.484.056-3.744v-124.149c0-6.085-3.984-11.194-9.932-12.711-34.453-8.87-68.289-28.262-104.088-48.787-10.381-5.953-21.098-12.099-31.928-17.998-1.964-1.092-4.377-1.092-6.341 0-10.83 5.898-21.547 12.045-31.928 17.998-35.8 20.525-69.635 39.917-104.088 48.778-5.948 1.525-9.932 6.635-9.932 12.72v124.148c0 34.48 9.034 61.375 28.337 84.641 17.227 20.738 41.299 36.75 66.718 53.693 16.216 10.778 32.938 21.917 49.94 35.392 2.412 1.936 5.825 1.9 8.249 0 16.89-13.386 33.499-24.474 49.603-35.18 3.367 4.85 7.239 9.357 11.503 13.429l-28.112 48.654c-3.386 5.943 2.069 13.046 8.697 11.275l23.23-6.227 6.228 23.23c1.754 6.645 10.67 7.748 14.084 1.863l31.479-54.578h10.1l31.479 54.569c3.429 5.921 12.332 4.795 14.084-1.843l6.228-23.241 23.23 6.218c6.644 1.784 12.031-5.307 8.7-11.273z" fill-rule="evenodd"/></svg>