<?xml version="1.0" encoding="UTF-8"?>
<svg xmlns="http://www.w3.org/2000/svg" id="Layer_3" data-name="Layer 3" viewBox="0 0 64 64" width="512" height="512"><path d="M29,53a3,3,0,1,0,3,3A3,3,0,0,0,29,53Zm0,4a1,1,0,1,1,1-1A1,1,0,0,1,29,57Z"/><path d="M43,53H37a1,1,0,0,0-1,1v4a1,1,0,0,0,1,1h6a1,1,0,0,0,1-1V54A1,1,0,0,0,43,53Zm-1,4H38V55h4Z"/><path d="M21,53H15a1,1,0,0,0-1,1v4a1,1,0,0,0,1,1h6a1,1,0,0,0,1-1V54A1,1,0,0,0,21,53Zm-1,4H16V55h4Z"/><path d="M25.528,40.882a1,1,0,0,0,1.027-.05l9-6a1,1,0,0,0,0-1.664l-9-6A1,1,0,0,0,25,28V40A1,1,0,0,0,25.528,40.882ZM27,29.869,33.2,34,27,38.131Z"/><path d="M39,47a3,3,0,0,0,2.816-2H47V43H41.816a2.982,2.982,0,0,0-5.632,0H11v2H36.184A3,3,0,0,0,39,47Zm0-4a1,1,0,1,1-1,1A1,1,0,0,1,39,43Z"/><path d="M48.171,7a3.8,3.8,0,0,0-2.707,1.122l-4.171,4.171a1,1,0,0,0,0,1.414l3,3a1.031,1.031,0,0,0,1.415,0L46,16.414V24a1,1,0,0,0,1,1h4a1,1,0,0,0,1-1V10.829A3.832,3.832,0,0,0,48.171,7ZM50,23H48V14a1,1,0,0,0-1.708-.707L45,14.585,43.414,13l3.464-3.464A1.829,1.829,0,0,1,50,10.829Z"/><path d="M48,1A15.017,15.017,0,0,0,33,16a14.833,14.833,0,0,0,.318,3H6a5.006,5.006,0,0,0-5,5V58a5.006,5.006,0,0,0,5,5H52a5.006,5.006,0,0,0,5-5V28h-.024A14.988,14.988,0,0,0,48,1ZM44.527,30.593l2.641,3.961a1,1,0,0,0,1.664,0L51,31.3V49H7V25H36.031A14.968,14.968,0,0,0,44.527,30.593ZM55,58a3,3,0,0,1-3,3H6a3,3,0,0,1-3-3V24a3,3,0,0,1,3-3H33.866a14.923,14.923,0,0,0,.891,2H6a1,1,0,0,0-1,1V50a1,1,0,0,0,1,1H52a1,1,0,0,0,1-1V30.132a14.914,14.914,0,0,0,2-.869ZM50.66,28.726a1,1,0,0,0-.629.424L48,32.2,45.969,29.15a1,1,0,0,0-.629-.424,13,13,0,1,1,5.32,0Z"/></svg>
